<svg id="b7487734-925f-44e0-a63f-3c7854b4b1f1" data-name="Layer 1" xmlns="http://www.w3.org/2000/svg" viewBox="0 0 178.06 44.03"><title>Stationery Logo Colour</title><path d="M39.1,25.14l.76-1c.16-.24.19-.26.29-.26a.14.14,0,0,1,.15.13c0,.07,0,.11-.15.42l-.51,1.31c-.12.31-.15.35-.26.35s-.12,0-.23-.25l-.1-.21H35.42l-.76,0-.76,0c-.13,0-.28,0-.28-.16s.11-.16.42-.19c.53,0,.58-.24.58-.9V19.65c0-.46,0-.8-.46-.84s-.53,0-.53-.18a.18.18,0,0,1,.18-.2c.33,0,1.26.05,1.41.05.3,0,.94-.05,1.19-.05s.29,0,.29.19-.06.13-.47.18-.55.21-.55.81v5.53Z" style="fill:#008996"/><path d="M43.06,21.84h1.77c.59,0,1.32,0,1.39-.8,0-.07,0-.29.18-.29s.17.09.16.29,0,.64,0,1c0,.18,0,1,0,1.12s0,.22-.16.22-.17-.12-.2-.42c-.06-.69-.78-.69-1.44-.69h-1.7v2.84h2.11a2,2,0,0,0,2-.88,4.06,4.06,0,0,1,.26-.36.28.28,0,0,1,.17-.09c.08,0,.15.05.15.09a1.94,1.94,0,0,1-.17.44l-.44.9c-.14.3-.2.42-.35.42l-1.72,0-1.87-.05h-1l-1,0c-.12,0-.21-.05-.21-.16s.07-.14.44-.19.56-.19.56-.94V19.82c0-.71,0-1-.46-1s-.53,0-.53-.18.19-.17.48-.17l1.06,0h4.5c.12,0,.18.05.17.1-.07.23-.13.43-.24.73l-.22.65c-.08.22-.12.32-.24.32s-.15-.09-.19-.43l-.1-.91H43.06Z" style="fill:#008996"/><path d="M55.29,23.78c0-.59-.06-.64-1-.71-.41,0-.49,0-.49-.18s.18-.14.31-.14l1.45,0,1.15,0s.24,0,.24.14-.16.16-.24.18c-.42.06-.42.28-.42.95v1.46a16.62,16.62,0,0,1-3.13.33c-3.28,0-4.44-2-4.44-3.71s1.18-3.83,4.58-3.83a20.69,20.69,0,0,1,2.84.28c.13,0,.13.08.15.38l0,1.33c0,.31,0,.41-.17.41s-.16,0-.28-.42-.66-1.53-2.69-1.53c-2.47,0-3.21,2-3.21,3.51,0,2.14,1.35,3.12,3.38,3.12a7.44,7.44,0,0,0,1.89-.24Z" style="fill:#008996"/><path d="M59.12,19.89c0-.82,0-1.06-.5-1.09s-.49,0-.49-.18.16-.19.29-.19,1.17.05,1.26.05c.28,0,1.09-.05,1.27-.05s.24,0,.24.16-.11.16-.42.18c-.6.05-.6.31-.6,1.12v4.26c0,.72,0,1.07.49,1.12s.53.06.53.21-.07.16-.33.16-1-.05-1.15-.05c-.42,0-1.21.05-1.35.05s-.23-.05-.23-.13.08-.15.45-.22.54-.13.54-.95Z" style="fill:#008996"/><path d="M67.18,20.2a.17.17,0,0,1-.18.19c-.16,0-.15-.11-.2-.2-.26-.93-.66-1.52-1.76-1.52a1.17,1.17,0,0,0-1.3,1.1c0,.51.28.69,1.86,1.71,1,.67,1.78,1.23,1.78,2.24s-.94,2.09-2.74,2.09a7.7,7.7,0,0,1-2.17-.36s0-.06,0-.31V23.89c0-.28,0-.41.17-.41s.15.05.3.48a2.06,2.06,0,0,0,2,1.44,1.37,1.37,0,0,0,1.46-1.31c0-.77-.44-1-2.32-2.26-.84-.54-1.3-1.09-1.3-1.77s.55-1.79,2.36-1.79a8.84,8.84,0,0,1,2,.27c.12,0,.12.06.12.39Z" style="fill:#008996"/><path d="M74.19,25.14l.77-1c.16-.24.18-.26.29-.26a.14.14,0,0,1,.15.13c0,.07,0,.11-.15.42l-.51,1.31c-.12.31-.15.35-.27.35s-.12,0-.22-.25l-.11-.21H70.51l-.75,0-.77,0c-.13,0-.27,0-.27-.16s.1-.16.42-.19c.53,0,.58-.24.58-.9V19.65c0-.46,0-.8-.46-.84s-.53,0-.53-.18,0-.2.17-.2c.33,0,1.27.05,1.41.05.31,0,.94-.05,1.19-.05s.29,0,.29.19-.05.13-.46.18-.55.21-.55.81v5.53Z" style="fill:#008996"/><path d="M78.72,22.7l-.43,1.06a3.29,3.29,0,0,0-.31,1c0,.45.52.52.72.53s.38,0,.38.18,0,.17-.21.17-.78-.05-1.14-.05-1.2.05-1.4.05-.19,0-.19-.16.16-.16.33-.19c.72-.09.93-.65,1.32-1.6l1.28-3.18c.26-.66.53-1.32.76-2,0-.12.1-.14.29-.14h.66c.15,0,.21,0,.25.12s.32,1,.39,1.16l1.38,3.92c.53,1.49.69,1.59,1.23,1.69s.42.08.42.19-.1.17-.21.17c-.32,0-1-.05-1.31-.05-.52,0-1.26.05-1.58.05-.14,0-.33,0-.33-.17s.11-.17.37-.18c.46,0,.74-.21.74-.49s0-.23-.32-1l-.37-1.06Zm1.46-3.59h0l-1.24,3.13h2.36Z" style="fill:#008996"/><path d="M86,18.94A1.41,1.41,0,0,0,84.4,20a.18.18,0,0,1-.18.17.16.16,0,0,1-.16-.17s0-.26,0-.31l.18-1.37c0-.27.06-.39.21-.39s.14.05.22.17c.23.36.56.36,1.21.36h4c.79,0,1,0,1.26-.41.07-.08.12-.13.2-.13s.16.12.19.35l.19,1.45a1.7,1.7,0,0,1,0,.28c0,.17-.06.17-.15.17s-.16-.11-.18-.17c-.23-1.06-1.17-1.08-1.71-1.08H88.47v5.43c0,.51,0,.86.64.9.43,0,.55,0,.55.18s-.14.19-.61.19c-.12,0-1-.05-1.28-.05s-1.14.05-1.23.05-.29,0-.29-.18.2-.17.26-.17c.81,0,.9-.18.9-.86V18.94Z" style="fill:#008996"/><path d="M93.86,19.89c0-.82,0-1.06-.51-1.09s-.48,0-.48-.18.15-.19.29-.19,1.17.05,1.26.05c.28,0,1.09-.05,1.27-.05s.24,0,.24.16-.11.16-.42.18c-.6.05-.6.31-.6,1.12v4.26c0,.72,0,1.07.49,1.12s.53.06.53.21-.07.16-.33.16-.95-.05-1.15-.05c-.42,0-1.21.05-1.35.05s-.23-.05-.23-.13.08-.15.44-.22.55-.13.55-.95Z" style="fill:#008996"/><path d="M105.31,18.6c0,.1,0,.12-.48.22s-.77.62-1,1.15l-2.64,5.68c-.11.24-.13.28-.3.28s-.23,0-.36-.31l-2.65-6c-.29-.68-.49-.76-.94-.81-.12,0-.26,0-.26-.17s.11-.17.29-.17,1.3.05,1.42.05.95-.05,1.2-.05.33,0,.33.17-.13.17-.49.2-.54.19-.54.34a2.24,2.24,0,0,0,.25.77l2,4.56,1.94-4.21a2.84,2.84,0,0,0,.33-1.06c0-.36-.27-.4-.62-.43s-.41,0-.41-.17.07-.17.26-.17l1.22.05c.27,0,.87-.05,1.2-.05S105.31,18.43,105.31,18.6Z" style="fill:#008996"/><path d="M108.15,21.84h1.77c.6,0,1.32,0,1.39-.8,0-.07,0-.29.18-.29s.18.09.16.29,0,.64,0,1c0,.18,0,1,0,1.12s0,.22-.16.22-.17-.12-.19-.42c-.07-.69-.78-.69-1.44-.69h-1.71v2.84h2.12a2,2,0,0,0,2-.88,2.81,2.81,0,0,1,.27-.36.26.26,0,0,1,.17-.09c.08,0,.14.05.14.09a1.56,1.56,0,0,1-.17.44l-.43.9c-.15.3-.2.42-.36.42l-1.72,0-1.87-.05h-1l-1,0c-.12,0-.21-.05-.21-.16s.06-.14.43-.19.57-.19.57-.94V19.82c0-.71,0-1-.46-1s-.53,0-.53-.18.18-.17.47-.17l1.06,0h4.5c.12,0,.19.05.17.1a7.63,7.63,0,0,1-.24.73l-.22.65c-.08.22-.12.32-.24.32s-.14-.09-.18-.43l-.11-.91h-3.17Z" style="fill:#008996"/><path d="M119.38,22.7l-.44,1.06a3.26,3.26,0,0,0-.3,1c0,.45.51.52.71.53s.38,0,.38.18,0,.17-.21.17-.78-.05-1.13-.05c-.5,0-1.2.05-1.4.05s-.2,0-.2-.16.16-.16.33-.19c.73-.09.94-.65,1.32-1.6l1.28-3.18c.26-.66.53-1.32.77-2,0-.12.09-.14.29-.14h.66c.14,0,.21,0,.25.12s.31,1,.38,1.16l1.39,3.92c.52,1.49.68,1.59,1.22,1.69s.43.08.43.19-.11.17-.22.17c-.31,0-1-.05-1.3-.05-.53,0-1.27.05-1.59.05-.14,0-.33,0-.33-.17s.11-.17.37-.18c.47,0,.74-.21.74-.49s0-.23-.31-1l-.37-1.06Zm1.45-3.59h0l-1.24,3.13h2.37Z" style="fill:#008996"/><path d="M130.68,20.2c0,.11-.05.18-.19.19s-.14-.11-.19-.2c-.27-.93-.66-1.52-1.76-1.52a1.18,1.18,0,0,0-1.31,1.1c0,.51.28.69,1.87,1.71,1,.67,1.78,1.23,1.78,2.24s-.94,2.09-2.75,2.09a7.68,7.68,0,0,1-2.16-.36c-.06,0-.06-.06-.06-.31V23.89c0-.28,0-.41.18-.41s.14.05.3.48a2,2,0,0,0,2,1.44,1.36,1.36,0,0,0,1.45-1.31c0-.77-.43-1-2.31-2.26-.84-.54-1.31-1.09-1.31-1.77s.56-1.79,2.37-1.79a8.91,8.91,0,0,1,1.95.27c.12,0,.12.06.12.39Z" style="fill:#008996"/><path d="M137.06,20.2a.18.18,0,0,1-.19.19c-.16,0-.14-.11-.2-.2-.26-.93-.66-1.52-1.75-1.52a1.18,1.18,0,0,0-1.31,1.1c0,.51.28.69,1.86,1.71,1,.67,1.78,1.23,1.78,2.24s-.93,2.09-2.74,2.09a7.7,7.7,0,0,1-2.17-.36c-.05,0-.05-.06-.05-.31V23.89c0-.28,0-.41.17-.41s.15.05.31.48a2,2,0,0,0,2,1.44,1.36,1.36,0,0,0,1.45-1.31c0-.77-.44-1-2.31-2.26-.85-.54-1.31-1.09-1.31-1.77s.56-1.79,2.36-1.79a8.9,8.9,0,0,1,2,.27c.12,0,.12.06.12.39Z" style="fill:#008996"/><path d="M140.41,21.84h1.77c.59,0,1.32,0,1.38-.8,0-.07,0-.29.19-.29s.17.09.16.29,0,.64,0,1c0,.18,0,1,0,1.12s0,.22-.16.22-.17-.12-.2-.42c-.06-.69-.78-.69-1.44-.69h-1.7v2.84h2.11a2,2,0,0,0,2-.88,4.06,4.06,0,0,1,.26-.36.28.28,0,0,1,.17-.09c.08,0,.15.05.15.09a1.94,1.94,0,0,1-.17.44l-.44.9c-.14.3-.2.42-.36.42l-1.71,0-1.87-.05h-1l-1,0c-.12,0-.21-.05-.21-.16s.07-.14.44-.19.56-.19.56-.94V19.82c0-.71,0-1-.46-1s-.53,0-.53-.18.19-.17.48-.17l1.06,0h4.5c.11,0,.18.05.17.1-.07.23-.13.43-.24.73l-.22.65c-.08.22-.12.32-.24.32s-.15-.09-.19-.43l-.1-.91h-3.17Z" style="fill:#008996"/><path d="M153.81,19.47a6.77,6.77,0,0,0,.36-.8c.06-.17.09-.24.19-.24s.74.05.94.05.63-.05.87-.05a.19.19,0,0,1,.21.17c0,.13-.06.13-.43.18s-.6.18-.6,1v4.58c0,.56,0,.89.65.92.28,0,.37,0,.37.18s-.08.16-.24.16c-.35,0-.95-.05-1.28-.05s-1.07.05-1.34.05-.21-.08-.21-.14,0-.15.43-.2.57-.22.57-1V19.7h0l-3,5.63c-.16.31-.19.33-.28.33s-.13,0-.29-.33l-2.93-5.62h0v4.67c0,.5,0,.94.75.94.11,0,.33,0,.33.16s-.19.16-.31.16c-.28,0-.87-.05-1.1-.05-.39,0-.78.05-1,.05s-.25,0-.25-.16.14-.16.55-.19.52-.25.52-1V19.72c0-.56,0-.85-.58-.92-.39-.05-.41-.08-.41-.18s0-.19.26-.19.59.05.9.05.67-.05.86-.05.1.05.12.1a4.89,4.89,0,0,0,.34.78l2.56,5Z" style="fill:#008996"/><path d="M158.27,19.9c0-.83,0-1-.56-1.1-.39,0-.44-.05-.44-.17s.19-.2.31-.2.71,0,1.3.05l1.6-.05c2.59,0,2.66,1.58,2.66,1.81A1.86,1.86,0,0,1,161.43,22v0c.91,0,2.35.5,2.35,1.78a1.78,1.78,0,0,1-1,1.58,4.06,4.06,0,0,1-1.76.34l-1.09,0s-.7-.05-1.19-.05-1.19.05-1.25.05-.24,0-.24-.17.1-.15.5-.2.51-.21.51-1.38Zm1,1.9h.48a4,4,0,0,0,1.4-.13,1.45,1.45,0,0,0,.83-1.3c0-.16,0-1.5-1.73-1.5a5.85,5.85,0,0,0-1,.09Zm0,.43v3c.26,0,.64.06,1.06.06a4.65,4.65,0,0,0,1.38-.18,1.36,1.36,0,0,0,.87-1.3,1.43,1.43,0,0,0-.84-1.32,4.56,4.56,0,0,0-1.78-.23Z" style="fill:#008996"/><path d="M170.26,25.14l.77-1c.16-.24.18-.26.29-.26a.13.13,0,0,1,.14.13c0,.07,0,.11-.14.42l-.52,1.31c-.12.31-.14.35-.26.35s-.12,0-.22-.25l-.11-.21h-3.63l-.75,0-.77,0c-.13,0-.28,0-.28-.16s.11-.16.43-.19c.53,0,.58-.24.58-.9V19.65c0-.46,0-.8-.46-.84s-.53,0-.53-.18,0-.2.17-.2c.33,0,1.27.05,1.41.05.31,0,.94-.05,1.19-.05s.29,0,.29.19-.05.13-.46.18-.56.21-.56.81v5.53Z" style="fill:#008996"/><path d="M172.07,19.71c-.53-.79-.74-.93-1.12-.95-.16,0-.29,0-.29-.16s.09-.17.32-.17,1,.05,1.5.05l1.16-.05c.12,0,.29,0,.29.17s-.13.17-.25.17c-.38,0-.74.05-.74.32s.14.34.36.69l1.37,2.09,1.2-1.84a1.9,1.9,0,0,0,.41-1c0-.25-.37-.29-.45-.29-.35,0-.5-.05-.5-.16s.12-.19.25-.19l.66,0,.58,0c.28,0,.94-.05,1,0s.22.09.22.15-.07.15-.31.17c-.54.08-.82.49-1.28,1.21l-1.56,2.44V24.3c0,.82.13.93.66,1s.53,0,.53.18,0,.17-.33.17l-1.57-.05-1.3.05c-.19,0-.23-.07-.23-.18s.18-.14.31-.16c.76-.07.87-.08.87-1v-1.9Z" style="fill:#008996"/><path d="M40.82,33c-.54,0-.72-.55-.72-.91,0-.9.81-1.92,1.52-1.92.29,0,.74.24.74.94S41.66,33,40.82,33Zm.85-2.32a.55.55,0,0,0-.35-.21c-.21,0-.72.52-.72,1.34,0,.51.19.88.53.88.5,0,.73-.79.73-1.32A1.05,1.05,0,0,0,41.67,30.69Z" style="fill:#81848a"/><path d="M44.14,31.81a8.81,8.81,0,0,1-.38,1.81c-.08.22-.42,1-1,1-.3,0-.53-.19-.53-.28a.36.36,0,0,1,.26-.29.19.19,0,0,1,.14.09c.16.19.19.23.32.23s.43-.42.46-.5a3.74,3.74,0,0,0,.19-.93l.3-2.35h-.19c-.23,0-.26,0-.26-.09s0-.18.23-.18h.25a2.18,2.18,0,0,1,.4-1.07,1.34,1.34,0,0,1,1.07-.54c.46,0,.61.28.61.35s-.21.28-.27.28-.1-.05-.15-.14a.39.39,0,0,0-.37-.25.67.67,0,0,0-.53.29,2,2,0,0,0-.3,1.08h.48c.18,0,.2,0,.2.09s0,.18-.24.18h-.47Z" style="fill:#81848a"/><path d="M48.77,29.8c0-.45,0-.57-.29-.6s-.23,0-.23-.1.09-.1.16-.1l.68,0,.84,0c1.35,0,1.39.86,1.39,1a1,1,0,0,1-.89.94h0c.47,0,1.23.28,1.23,1a1,1,0,0,1-.52.87,2,2,0,0,1-.92.18h-.58s-.36,0-.62,0-.62,0-.65,0-.13,0-.13-.1.06-.08.26-.11.27-.11.27-.75Zm.54,1h.24a2.16,2.16,0,0,0,.74-.07.82.82,0,0,0-.47-1.53,2.24,2.24,0,0,0-.51.05Zm0,.24V32.7c.13,0,.33,0,.55,0a2.53,2.53,0,0,0,.72-.09.75.75,0,0,0,.46-.71.81.81,0,0,0-.44-.73,2.35,2.35,0,0,0-.94-.12Z" style="fill:#81848a"/><path d="M53.74,32.23c0,.31,0,.48.27.51s.24,0,.24.11-.09.1-.19.1l-.61,0-.67,0c-.05,0-.12,0-.12-.09s0-.09.27-.11.25-.19.25-.54V29.8c0-.39,0-.56-.27-.6s-.25,0-.25-.11.06-.09.15-.09l.57,0,.47,0c.11,0,.38,0,.62,0,1.23,0,1.42.71,1.42,1.06a1.11,1.11,0,0,1-.86,1,6.29,6.29,0,0,0,1.59,1.77.75.75,0,0,1,.16,0s0,0,0,.06-.2.09-.3.09c-.44,0-.77-.1-1.31-.83l-.74-1a1.19,1.19,0,0,1-.28,0,4.1,4.1,0,0,1-.43,0Zm0-1.26.33,0c.66,0,1.18-.24,1.18-.91,0-.5-.36-.86-1.06-.86a2.23,2.23,0,0,0-.45,0Z" style="fill:#81848a"/><path d="M58,29.8c0-.45,0-.58-.26-.6s-.26,0-.26-.1.09-.1.16-.1l.66,0L59,29s.13,0,.13.09-.06.08-.22.09c-.32,0-.32.17-.32.62v2.33c0,.39,0,.58.26.61s.28,0,.28.12,0,.09-.18.09l-.6,0-.7,0c-.09,0-.13,0-.13-.08s0-.08.24-.11.28-.08.28-.52Z" style="fill:#81848a"/><path d="M61,29.28a.74.74,0,0,0-.83.59.09.09,0,0,1-.09.09.09.09,0,0,1-.09-.09s0-.15,0-.17l.09-.75c0-.15,0-.21.11-.21s.07,0,.11.09.3.2.64.2h2.11c.41,0,.52,0,.66-.23,0,0,.06-.07.1-.07s.09.07.1.19l.1.8a.8.8,0,0,1,0,.15C64,30,64,30,64,30s-.08-.06-.09-.09c-.12-.58-.61-.59-.9-.59h-.69v3c0,.28,0,.47.34.49s.29,0,.29.1-.07.11-.32.11l-.67,0-.65,0s-.15,0-.15-.1.11-.09.14-.09c.42,0,.47-.1.47-.48v-3Z" style="fill:#81848a"/><path d="M65.55,29.8c0-.45,0-.58-.26-.6s-.26,0-.26-.1.08-.1.15-.1l.67,0,.66,0s.13,0,.13.09-.06.08-.23.09-.31.17-.31.62v2.33c0,.39,0,.58.26.61s.28,0,.28.12,0,.09-.18.09l-.6,0-.7,0c-.09,0-.13,0-.13-.08s0-.08.24-.11.28-.08.28-.52Z" style="fill:#81848a"/><path d="M70.23,30c0,.06,0,.09-.1.1S70.06,30,70,30c-.14-.51-.35-.83-.92-.83a.62.62,0,0,0-.68.6c0,.28.14.38,1,.94.53.36.93.67.93,1.22S69.84,33,68.9,33a3.63,3.63,0,0,1-1.14-.2s0,0,0-.17V32c0-.16,0-.23.09-.23s.08,0,.16.26a1.08,1.08,0,0,0,1.06.79.72.72,0,0,0,.76-.71c0-.42-.23-.58-1.21-1.24-.44-.3-.68-.6-.68-1s.29-1,1.23-1a4.09,4.09,0,0,1,1,.15c.06,0,.06,0,.06.21Z" style="fill:#81848a"/><path d="M72.52,32.26c0,.36,0,.45.28.48s.24,0,.24.11-.09.1-.21.1-.38,0-.62,0l-.63,0s-.14,0-.14-.09.1-.1.19-.1c.33,0,.33-.2.33-.5V29.69c0-.31,0-.49-.33-.5-.1,0-.19,0-.19-.1s.07-.09.15-.09l.62,0,.63,0c.14,0,.2,0,.2.1s0,.07-.24.1-.28.14-.28.49V30.8H75.2V29.69c0-.34,0-.45-.28-.49s-.24,0-.24-.1.1-.1.18-.1l.49,0c.35,0,.69,0,.79,0s.14,0,.14.09-.09.09-.19.1c-.34,0-.34.2-.34.5v2.57c0,.3,0,.48.34.5.09,0,.19,0,.19.09s-.11.1-.14.1l-.63,0-.67,0c-.11,0-.16,0-.16-.1s0-.08.24-.11.28-.14.28-.48V31.05H72.52Z" style="fill:#81848a"/><path d="M83.62,29.84c0,.22,0,.31-.12.31s-.09,0-.12-.23a.49.49,0,0,0-.17-.39,1.66,1.66,0,0,0-1.07-.37A1.62,1.62,0,0,0,80.52,31a1.61,1.61,0,0,0,1.63,1.8A1.33,1.33,0,0,0,83.43,32c0-.07.06-.11.11-.11s.09.06.08.24l0,.43c0,.15,0,.16-.08.19a4,4,0,0,1-1.47.27A2,2,0,0,1,79.84,31a2.07,2.07,0,0,1,2.29-2.06,4.76,4.76,0,0,1,1.43.23s0,0,0,.18Z" style="fill:#81848a"/><path d="M86.87,33A2.07,2.07,0,1,1,89.09,31,2.08,2.08,0,0,1,86.87,33Zm0-3.88a1.56,1.56,0,0,0-1.54,1.77c0,1.14.63,1.86,1.57,1.86A1.57,1.57,0,0,0,88.43,31C88.43,30.13,88,29.16,86.85,29.16Z" style="fill:#81848a"/><path d="M93,32.67l.4-.57c.09-.13.1-.14.15-.14a.07.07,0,0,1,.08.07s0,.06-.08.23l-.26.72c-.07.17-.08.19-.14.19s-.07,0-.12-.14l-.06-.11H90.65l-.4,0c-.07,0-.15,0-.15-.09s.06-.09.22-.1.31-.14.31-.5v-2.6c0-.25,0-.43-.24-.46s-.28,0-.28-.1a.09.09,0,0,1,.09-.1l.74,0,.62,0c.1,0,.15,0,.15.1s0,.07-.24.1-.29.12-.29.44v3Z" style="fill:#81848a"/><path d="M94.6,29.74c0-.32,0-.52-.24-.54s-.29,0-.29-.11.08-.09.17-.09l.68,0,.63,0s.13,0,.13.09-.09.09-.15.09c-.36,0-.37.16-.37.5v1.46c0,.83.1,1,.27,1.22a1.23,1.23,0,0,0,1,.37,1.12,1.12,0,0,0,1.12-.59,1.94,1.94,0,0,0,.16-.87V30c0-.6-.06-.79-.43-.82s-.28,0-.28-.1,0-.09.12-.09l.69,0,.57,0c.06,0,.15,0,.15.09s0,.07-.21.1-.32.12-.32.52v1.65c0,.88-.29,1.15-.5,1.31a1.91,1.91,0,0,1-1.21.37,1.66,1.66,0,0,1-1.44-.67,2.23,2.23,0,0,1-.21-1.17Z" style="fill:#81848a"/><path d="M103.3,29.56a2.91,2.91,0,0,0,.19-.43c0-.1.05-.13.11-.13l.49,0,.45,0c.07,0,.11,0,.11.09s0,.07-.22.1-.32.1-.32.56v2.51c0,.3,0,.48.34.5.15,0,.2,0,.2.1s-.05.09-.13.09l-.67,0-.7,0c-.1,0-.11-.05-.11-.08s0-.08.22-.11.3-.12.3-.53V29.69h0L102,32.77c-.08.18-.1.19-.15.19s-.07,0-.15-.19l-1.53-3.07h0v2.56c0,.27,0,.51.4.51,0,0,.17,0,.17.09s-.1.09-.17.09l-.57,0c-.21,0-.41,0-.55,0s-.13,0-.13-.09.08-.09.29-.1.27-.14.27-.56V29.7c0-.31,0-.46-.3-.5s-.21,0-.21-.1,0-.1.13-.1.31,0,.47,0l.45,0s.06,0,.06.05.15.36.18.43L102,32.19Z" style="fill:#81848a"/><path d="M106.24,29.8c0-.45,0-.57-.3-.6s-.23,0-.23-.1.1-.1.16-.1l.68,0,.84,0c1.36,0,1.4.86,1.4,1a1,1,0,0,1-.9.94h0c.47,0,1.23.28,1.23,1a1,1,0,0,1-.52.87,2,2,0,0,1-.92.18h-.57s-.37,0-.63,0-.62,0-.65,0-.13,0-.13-.1.06-.08.27-.11.27-.11.27-.75Zm.53,1H107a2.1,2.1,0,0,0,.73-.07.82.82,0,0,0-.47-1.53,2.3,2.3,0,0,0-.51.05Zm0,.24V32.7c.14,0,.33,0,.55,0a2.59,2.59,0,0,0,.73-.09.75.75,0,0,0,.45-.71.8.8,0,0,0-.44-.73,2.3,2.3,0,0,0-.93-.12Z" style="fill:#81848a"/><path d="M110.6,29.8c0-.45,0-.58-.26-.6s-.25,0-.25-.1.08-.1.15-.1l.66,0,.67,0s.12,0,.12.09,0,.08-.22.09-.31.17-.31.62v2.33c0,.39,0,.58.25.61s.28,0,.28.12,0,.09-.17.09l-.6,0-.71,0c-.09,0-.12,0-.12-.08s0-.08.23-.11.28-.08.28-.52Z" style="fill:#81848a"/><path d="M113.86,31.33l-.23.58a2,2,0,0,0-.16.55c0,.25.27.29.38.3s.2,0,.2.09a.1.1,0,0,1-.11.1l-.6,0c-.26,0-.63,0-.73,0a.09.09,0,0,1-.1-.09c0-.09.08-.09.17-.1.38-.06.49-.36.69-.88l.67-1.74c.14-.36.28-.73.4-1.09,0-.06,0-.08.15-.08h.35c.07,0,.11,0,.13.07s.17.54.2.64l.73,2.14c.27.82.36.88.64.93s.22,0,.22.1a.1.1,0,0,1-.11.1l-.68,0c-.28,0-.67,0-.83,0s-.18,0-.18-.1.06-.09.2-.09.38-.12.38-.27a1.84,1.84,0,0,0-.16-.58l-.2-.58Zm.76-2h0L114,31.08h1.23Z" style="fill:#81848a"/><path d="M25.38,43.58a.81.81,0,0,1-.13.45h11.9l-.06-1.22C36.49,34.66,31.6,29,24.7,25.69c0-.07-.05-.13-.11-.13H24c-.09,0-.43-.2-.48-.35v-.07c.15,0,.15-.26,0-.26h-.73v-.67h-.11v-.08c.1,0,.05-.21.15-.25h.05a.39.39,0,0,1,.19-.28h.07v-.22h-.3v-.29a.8.8,0,0,0-.18-.23V18.91h0s0-.09.07-.1v-.12h.06v-.21h.06v-.11h-.18v0h0s0-.08.08-.11h0v-.09h-.11v-.8h.09v-.09h0a.24.24,0,0,1,.1-.14h0V17h.16v-.1h0V16.8h0v-.09c.23-.09.23-.31.41-.39h0v-.09h-.76A5.47,5.47,0,0,0,20,11.69a.07.07,0,0,0-.06,0h0s0,0,0,0,0,0,0,0,0,0,0,0a0,0,0,0,0,0,0h-.14v-1h.08v-.29h.08v-.15a.14.14,0,0,0,.14-.14.14.14,0,0,0-.14-.13h-.53V9.32h.06V9.11h.06V9a.1.1,0,0,0,0-.2h-.05a.18.18,0,0,1-.07-.11h-.1v0s0,0,0,0l-.05,0a.06.06,0,0,1,0-.05.09.09,0,0,0,0-.06l0,0,0-.12c0-.06.06-.25.08-.55s0-.53,0-.53a.12.12,0,0,0,0,0s0-.06,0-.08,0,0,.05-.1a.81.81,0,0,0,0-.19s.07-.16.12-.34a2,2,0,0,0,.08-.36h.17a.06.06,0,0,0,.05,0,.41.41,0,0,0,0-.08s0,0,0,0h-.05s0,0,0,0h-.07a.35.35,0,0,1,0-.06.24.24,0,0,1,0-.07l0,0,.12,0s.09-.09.12-.12a.32.32,0,0,0,0-.15A.38.38,0,0,0,20,5.45l0,0s-.06-1-.06-1.11a.81.81,0,0,0-.07-.26s0,0,0-.08a.63.63,0,0,0,0-.14c0-.07-.07-.21-.07-.21a.17.17,0,0,0,0-.07.55.55,0,0,1,0-.09.07.07,0,0,0,0,0,.07.07,0,0,0,0-.06.66.66,0,0,0-.15-.09.28.28,0,0,0-.12,0,1.43,1.43,0,0,1-.28,0A.43.43,0,0,1,19,3.09V3a.39.39,0,0,1,0-.09s0,0,0-.06a.48.48,0,0,0,.06-.11.38.38,0,0,0,0-.18s0-.1,0-.12a0,0,0,0,1,0,0,.2.2,0,0,0,.1-.07.2.2,0,0,0,.06-.14V2.16l-.07,0A.74.74,0,0,1,19,2a.41.41,0,0,0-.24-.13.3.3,0,0,0-.17,0,.74.74,0,0,0-.2.31.44.44,0,0,1-.11.1v0a.21.21,0,0,0,.1.1l.09,0h0a.43.43,0,0,1,0,0,.18.18,0,0,1,0,.1.34.34,0,0,0,0,.13.15.15,0,0,0,0,.08l0,.06.06.09V3a.13.13,0,0,1,0,.07.48.48,0,0,1-.2.11,2.69,2.69,0,0,1-.29,0l0-2.95h0V.23a.11.11,0,0,0,.1-.11A.12.12,0,0,0,18.09,0,.12.12,0,0,0,18,.12a.12.12,0,0,0,.1.11V.3h0V.57s-.29.51-.35.64a5.69,5.69,0,0,0-.36,2c0,1.1.15,1.3.17,1.31s0,0,0,0a.48.48,0,0,1,.16-.06c.1,0,.06,0,.06,0a1.48,1.48,0,0,1,0,.16.22.22,0,0,0,.08.15s.05,0,.06,0A.44.44,0,0,1,18,4.69a1.23,1.23,0,0,1,0,.17s0,.79,0,.79h0a.28.28,0,0,1,0,.13,2.92,2.92,0,0,0,0,.34.88.88,0,0,1-.05.1s0,0,0,0a0,0,0,0,1,0,.05s0,.46,0,.46h0l0,1.59v.17a.26.26,0,0,0-.06.13v0h-.13a.23.23,0,0,1-.07.11h-.06a.1.1,0,0,0,0,.2v.1h.06v.21h.06v.53h-.53a.13.13,0,0,0-.13.13.13.13,0,0,0,.13.14v.15h.08v.29h.08v1h-.14a0,0,0,0,0,0,0,0,0,0,0,0,0,0s0,0,0,0,0,0,0,0h0a.07.07,0,0,0-.06,0,5.47,5.47,0,0,0-2.73,4.54h-.76v.09h0c.18.08.18.3.41.39v.09h0v.11h0V17h.16v.09h0a.24.24,0,0,1,.1.14h0v.09h.09v.8h-.11v.09h0c.06,0,.08.06.08.11h0v0h-.18v.11h.06v.21h.06v.12c.05,0,.07.08.07.1h0v3.95a.8.8,0,0,0-.18.23v.29H14v.22h.07a.36.36,0,0,1,.19.28h0c.1,0,.05.22.15.25v.75h-.84c-.15,0-.15.26,0,.26v.07c-.05.15-.39.33-.48.35h-.61c-.06,0-.1.06-.11.13C5.55,29,.66,34.66.05,42.81L0,44H11.9a.81.81,0,0,1-.13-.45c-.24-.18-.11-.33,0-.42s0-.3,0-.3h-.14L11.49,42h.13v-.21c-.26-.09-.07-.66.32-.65,0-.1-.22-1.58-.22-1.58l-.21,0-.08-.82.22,0a2.41,2.41,0,0,0-.33-1.15c-.78-1-2.17-4.72,1.25-5.76,1.19-.37,2.87.67,3.87.64a4.48,4.48,0,0,0,.52,0s-.77-1.07-.32-1.26c0,0-.56-.39.05-.68a2,2,0,0,1,.71-1l-.11-.32a.34.34,0,0,1,.32-.05c.1-.41-.5-.65-.46,0-.24.08-.34-.13-.31-.29-1.16-.22,0-1.28-.33-1.57-.18.1-.35,0-.28-.15s.11-.21,0-.27-.06-.36.13-.22,0,.09.21,0a1.71,1.71,0,0,1,.47-.12c.13,0,.2-.08.11-.18-.45-.48,0-.95.31-.8.05,0,.25.19.23,0a.36.36,0,0,1,0-.19h0a.34.34,0,0,1,.34-.32h0a.41.41,0,0,1,.14-.12.3.3,0,0,1-.05-.15.34.34,0,1,1,.68,0,.3.3,0,0,1,0,.15.53.53,0,0,1,.14.11h0a.43.43,0,0,1,.38.32.5.5,0,0,1,0,.2c0,.15.18,0,.23,0,.27-.15.76.32.3.8-.08.1,0,.18.12.18a1.57,1.57,0,0,1,.46.12c.18.05,0,.11.22,0s.19.17.13.22,0,.12,0,.27-.1.25-.28.15c-.33.29.83,1.35-.34,1.57,0,.16-.06.37-.3.29,0-.61-.56-.37-.46,0a.34.34,0,0,1,.32.05l-.11.32a2,2,0,0,1,.71,1c.61.29.05.68.05.68.45.19-.32,1.26-.32,1.26a4.4,4.4,0,0,0,.51,0c1,0,2.69-1,3.88-.64,3.41,1,2,4.79,1.25,5.76a2.41,2.41,0,0,0-.33,1.15l.22,0-.09.82-.2,0s-.2,1.48-.22,1.58c.38,0,.58.56.31.65V42h.14l-.09.85h-.13l-.05.3C25.49,43.25,25.62,43.4,25.38,43.58ZM16.58,22H15.43v-3.1h0s0-.09.07-.1v-.12h.06V18.5h.84v.19h.06v.12a.19.19,0,0,1,.1.1h0ZM18.3,8.64s0-.14,0-.17,0-.17,0-.23,0-.1.09-.39a2.15,2.15,0,0,0,0-.58s0,0,0-.08,0-.06,0-.08a.63.63,0,0,1,0-.14.4.4,0,0,0,0-.18h0v0l.33,0h0a1.18,1.18,0,0,1,0,.19s0,.07,0,.1,0,0,0,.1,0,.07,0,.07v.15l0,.09a1,1,0,0,0,0,.25c0,.08,0,.1,0,.1a1.49,1.49,0,0,1,0,.17c0,.08,0,.05-.07.13a.26.26,0,0,0,0,.13h0l0,0,0,.05s0,.16,0,.2,0,.09-.05.12a.12.12,0,0,0,0,.07h-.56ZM19.68,22h-2.2v-3.1h0s0-.09.07-.1v-.12h.06V18.5h1.9v.19h.06v.12s.07.08.07.1h0Zm2.05,0H20.59v-3.1h0s0-.09.07-.1v-.12h.06V18.5h.84v.19h.06v.12s.07.08.07.1h0Z" style="fill:#008996"/><path d="M12,38.18a5.16,5.16,0,0,0,.36-1l.18,3.2-.38-.45,0,.56s.14.29.65.08.85-1.07.9-1.18c-.37-.22-.14-.5-.14-.5s-.09-.42-.4-.34,0,1.12-.32,1.39c.12-.65-.81-2.67.6-2-.2-1.19.27-1.3.23-1.81,0,.52.69.53.73,1.74.19-.34.82-.9,1.2-.42.78,1-.25,1.82-.09,2.28-.36-.08-.52-.41-.59-1,0-.29-.37-.36-.53.1a.31.31,0,0,1,0,.52,1.69,1.69,0,0,0,.7.68A2.4,2.4,0,0,0,18,38.84s-.69-.26-1.58.92c-.05-1.37-.08-2.06-.11-3.17A5.55,5.55,0,0,0,18.08,38a2.7,2.7,0,0,0-1.4-1.8h1.17V32.91s-1,.43-1.07.43c-1.65-.1-2.45-.75-3.16-.74-3.33,0-2.94,3-1.78,4.59C12,37.4,12,37.61,12,38.18Z" style="fill:#008996"/><path d="M25.1,38.18a4.5,4.5,0,0,1-.36-1l-.18,3.2.38-.45-.06.56s-.14.29-.64.08-.85-1.07-.91-1.18c.38-.22.14-.5.14-.5s.1-.42.41-.34,0,1.12.31,1.39c-.12-.65.81-2.67-.6-2,.21-1.19-.27-1.3-.23-1.81,0,.52-.69.53-.73,1.74-.19-.34-.82-.9-1.2-.42-.78,1,.25,1.82.09,2.28.37-.08.53-.41.6-1,0-.29.37-.36.53.1a.31.31,0,0,0,0,.52,1.69,1.69,0,0,1-.7.68A2.41,2.41,0,0,1,19,38.84s.69-.26,1.58.92c.05-1.37.09-2.06.11-3.17A5.46,5.46,0,0,1,19,38a2.7,2.7,0,0,1,1.39-1.8H19.23V32.91s1,.43,1.07.43c1.65-.1,2.46-.75,3.17-.74,3.33,0,2.93,3,1.78,4.59C25.09,37.4,25.1,37.61,25.1,38.18Z" style="fill:#008996"/></svg>